<svg width="3063" height="688" viewBox="0 0 3063 688" fill="none" xmlns="http://www.w3.org/2000/svg">
<g clip-path="url(#clip0_410_8)">
<path fill-rule="evenodd" clip-rule="evenodd" d="M164.417 687.505H480.698C571.099 687.505 645.068 613.542 645.068 523.141V206.859C645.068 116.458 571.099 42.4948 480.698 42.4948H164.417C74.0158 42.4948 0.0522461 116.458 0.0522461 206.859V523.141C0.0522461 613.542 74.0158 687.505 164.417 687.505ZM252.115 245.198V364.995H282.849V484.792H397.318V364.995H366.583V245.198H252.115ZM182.062 364.995V182.76H432.318V364.995H463.052V547.24H212.797V364.995H182.062Z" fill="#54A31C"/>
<path d="M2582.68 342.401H2445.52V273.818H2582.68V226.292H2392.2V365.005H2414.47V503.708H2604.96V456.187H2467.79V387.609H2604.96V365.005H2582.68" fill="#54A31C"/>
<path d="M2674.64 273.818H2761.77V342.396H2674.64V273.818ZM2811.8 226.292H2621.32V365H2643.59V503.708H2696.91V387.609H2715.65L2784.04 503.708H2834.08L2768.97 387.609H2834.08V365H2811.8" fill="#54A31C"/>
<path d="M2314.31 365H2292.03L2353.56 273.818V226.292H2163.08V273.818H2288.47L2225.77 365H2248.05L2185.36 456.187V503.708H2375.84V456.187H2252.77" fill="#54A31C"/>
<path d="M3013.16 456.187H2926.04V365H2903.76V273.818H2990.9V365H3013.16V456.187ZM3040.92 365V226.292H2850.44V365H2872.72V503.708H3063.2V365" fill="#54A31C"/>
<path d="M1207.96 273.818H1295.09V342.396H1207.96V273.818ZM1154.64 503.708H1207.96V387.604H1345.12V226.292H1154.64" fill="#111D08"/>
<path d="M1437.08 273.818H1524.21V342.396H1437.08V273.818ZM1383.76 503.708H1437.08V387.604H1455.83L1524.21 503.708H1574.24L1509.15 387.604H1574.24V226.292H1383.76" fill="#111D08"/>
<path d="M1612.88 503.708H1666.2V226.292H1612.88V503.708Z" fill="#111D08"/>
<path d="M1845.28 381.807L1758.16 226.292H1704.84V503.708H1758.16V343.552L1845.28 503.708H1895.32V226.292H1845.28" fill="#111D08"/>
<path d="M1933.96 226.292V273.818H2006.02V503.708H2059.33V273.818H2124.44V226.292" fill="#111D08"/>
<path d="M922.932 387.599H1063.38V456.182H922.932V503.708H1113.42V342.396H976.25V273.812H1113.42V226.292H922.932" fill="#111D08"/>
<rect x="2708.5" width="316" height="163" rx="24" fill="#54A31C"/>
<path d="M2763.2 116H2786.08C2790.92 116 2795.08 115.219 2798.55 113.656C2802.05 112.062 2804.73 109.828 2806.61 106.953C2808.52 104.078 2809.47 100.672 2809.47 96.7344V96.6406C2809.47 93.6719 2808.77 91.0156 2807.36 88.6719C2805.98 86.2969 2804.08 84.3906 2801.64 82.9531C2799.2 81.4844 2796.41 80.6406 2793.25 80.4219V80.1406C2795.75 79.7969 2797.98 78.9375 2799.95 77.5625C2801.92 76.1562 2803.47 74.4062 2804.59 72.3125C2805.75 70.1875 2806.33 67.8906 2806.33 65.4219V65.3281C2806.33 61.8594 2805.48 58.8594 2803.8 56.3281C2802.11 53.7656 2799.72 51.7969 2796.62 50.4219C2793.53 49.0469 2789.84 48.3594 2785.56 48.3594H2763.2V58.8594H2781.91C2785.22 58.8594 2787.8 59.6094 2789.64 61.1094C2791.48 62.5781 2792.41 64.6562 2792.41 67.3438V67.4375C2792.41 70.3438 2791.36 72.6094 2789.27 74.2344C2787.2 75.8281 2784.17 76.625 2780.17 76.625H2763.2V86.2344H2781.86C2784.73 86.2344 2787.14 86.5938 2789.08 87.3125C2791.05 88.0312 2792.53 89.1094 2793.53 90.5469C2794.53 91.9531 2795.03 93.6875 2795.03 95.75V95.8438C2795.03 98.9688 2793.95 101.359 2791.8 103.016C2789.64 104.641 2786.53 105.453 2782.47 105.453H2763.2V116ZM2756.12 116H2770.28V48.3594H2756.12V116ZM2817.53 116H2862.34V104.328H2831.69V87.3125H2860.61V76.25H2831.69V60.0312H2862.34V48.3594H2817.53V116ZM2888.73 116H2902.89V60.0312H2922.48V48.3594H2869.19V60.0312H2888.73V116ZM2916.91 116H2931.77L2948.69 61.4844H2953V48.3594H2940.53L2916.91 116ZM2929.61 99.5938H2968.09L2964.62 89H2933.08L2929.61 99.5938ZM2965.89 116H2980.75L2957.17 48.3594H2948.97V61.4844L2965.89 116Z" fill="#111D08"/>
</g>
<defs>
<clipPath id="clip0_410_8">
<rect width="3063" height="688" fill="white"/>
</clipPath>
</defs>
</svg>
