<svg width="12" height="12" viewBox="0 0 12 12" fill="none" xmlns="http://www.w3.org/2000/svg">
	<g clip-path="url(#clip0_7521_13243)">
		<path
			d="M9.55362 5.62826C9.93145 5.6601 10.3203 5.53146 10.6094 5.24236C11.1302 4.7215 11.1302 3.87703 10.6094 3.35617C10.2971 3.04393 9.83203 2.95542 9.50957 2.93461C9.22369 2.93461 9.06539 2.76441 9.06539 2.49044C9.04458 2.16797 8.95607 1.70288 8.64383 1.39064C8.12297 0.869786 7.2785 0.869786 6.75764 1.39064C6.46854 1.67974 6.33991 2.06855 6.37174 2.44638C6.41508 2.96082 6.46171 3.57277 6.09665 3.93782L3.93782 6.09665C3.57277 6.4617 2.96082 6.41508 2.44638 6.37174C2.06855 6.3399 1.67975 6.46854 1.39064 6.75764C0.869786 7.2785 0.869786 8.12297 1.39064 8.64383C1.70288 8.95607 2.16797 9.04458 2.49043 9.06539C2.79579 9.06539 2.93461 9.25 2.93461 9.50956C2.95542 9.83203 3.04393 10.2971 3.35617 10.6094C3.87703 11.1302 4.7215 11.1302 5.24236 10.6094C5.53146 10.3203 5.66009 9.93145 5.62826 9.55362C5.58492 9.03918 5.53829 8.42723 5.90335 8.06217L8.06218 5.90335C8.42724 5.53829 9.03918 5.58492 9.55362 5.62826Z"
			stroke="currentColor" stroke-linecap="round" stroke-linejoin="round" />
	</g>
	<defs>
		<clipPath id="clip0_7521_13243">
			<rect width="12" height="12" rx="4" fill="currentColor" />
		</clipPath>
	</defs>
</svg>
