<svg width="13" height="12" viewBox="0 0 13 12" fill="none" xmlns="http://www.w3.org/2000/svg">
	<path d="M3.87158 10.0492V11.1668H8.45597V9.39893" stroke="currentColor" stroke-width="0.8" stroke-miterlimit="10"
		stroke-linecap="round" stroke-linejoin="round" />
	<path
		d="M3.87158 10.049H4.67119V9.00595H5.6507V7.99673H6.74349V6.39823H5.96387V5.40255H5.01768V2.78807H5.96387V1.29794H4.7778V0.97959C4.7778 0.891537 4.83111 0.817032 4.91107 0.789939C5.49078 0.600286 6.25707 0.444505 7.14329 0.519011C7.6697 0.559651 8.42266 0.620614 9.21559 1.11506C9.51545 1.30472 10.335 1.83303 10.7215 2.90321C10.8814 3.35703 10.9214 3.77019 10.9214 4.07499C10.9214 4.23755 10.9614 4.39334 11.048 4.5288C11.2812 4.90811 11.7477 5.67349 11.9676 6.03247C12.0342 6.14085 11.9942 6.27631 11.8876 6.33727L11.1013 6.77754C10.988 6.8385 10.9214 6.96718 10.9347 7.09588C10.988 7.5971 10.9481 7.99673 10.9081 8.26767C10.8481 8.66052 10.8015 8.9179 10.6149 9.16174C10.2551 9.62909 9.66204 9.68328 9.50212 9.69683C8.5959 9.77811 8.56259 9.50718 8.45597 9.3988"
		stroke="currentColor" stroke-width="0.8" stroke-miterlimit="10" stroke-linecap="round" />
	<mask id="path-4-inside-1_7521_3579" fill="white">
		<path d="M3.90467 0.803711H2.93848V1.78584H3.90467V0.803711Z" />
	</mask>
	<path d="M3.90467 0.803711H2.93848V1.78584H3.90467V0.803711Z" fill="currentColor" />
	<path
		d="M2.93848 0.803711V-0.196289H1.93848V0.803711H2.93848ZM3.90467 0.803711H4.90467V-0.196289H3.90467V0.803711ZM3.90467 1.78584V2.78584H4.90467V1.78584H3.90467ZM2.93848 1.78584H1.93848V2.78584H2.93848V1.78584ZM2.93848 1.80371H3.90467V-0.196289H2.93848V1.80371ZM2.90467 0.803711V1.78584H4.90467V0.803711H2.90467ZM3.90467 0.785837H2.93848V2.78584H3.90467V0.785837ZM3.93848 1.78584V0.803711H1.93848V1.78584H3.93848Z"
		fill="currentColor" mask="url(#path-4-inside-1_7521_3579)" />
	<mask id="path-6-inside-2_7521_3579" fill="white">
		<path d="M2.13904 1.78564H1.17285V2.76777H2.13904V1.78564Z" />
	</mask>
	<path d="M2.13904 1.78564H1.17285V2.76777H2.13904V1.78564Z" fill="currentColor" />
	<path
		d="M1.17285 1.78564V0.785645H0.172852V1.78564H1.17285ZM2.13904 1.78564H3.13904V0.785645H2.13904V1.78564ZM2.13904 2.76777V3.76777H3.13904V2.76777H2.13904ZM1.17285 2.76777H0.172852V3.76777H1.17285V2.76777ZM1.17285 2.78564H2.13904V0.785645H1.17285V2.78564ZM1.13904 1.78564V2.76777H3.13904V1.78564H1.13904ZM2.13904 1.76777H1.17285V3.76777H2.13904V1.76777ZM2.17285 2.76777V1.78564H0.172852V2.76777H2.17285Z"
		fill="currentColor" mask="url(#path-6-inside-2_7521_3579)" />
	<mask id="path-8-inside-3_7521_3579" fill="white">
		<path d="M3.83826 2.61865H2.87207V3.60078H3.83826V2.61865Z" />
	</mask>
	<path d="M3.83826 2.61865H2.87207V3.60078H3.83826V2.61865Z" fill="currentColor" />
	<path
		d="M2.87207 2.61865V1.61865H1.87207V2.61865H2.87207ZM3.83826 2.61865H4.83826V1.61865H3.83826V2.61865ZM3.83826 3.60078V4.60078H4.83826V3.60078H3.83826ZM2.87207 3.60078H1.87207V4.60078H2.87207V3.60078ZM2.87207 3.61865H3.83826V1.61865H2.87207V3.61865ZM2.83826 2.61865V3.60078H4.83826V2.61865H2.83826ZM3.83826 2.60078H2.87207V4.60078H3.83826V2.60078ZM3.87207 3.60078V2.61865H1.87207V3.60078H3.87207Z"
		fill="currentColor" mask="url(#path-8-inside-3_7521_3579)" />
	<mask id="path-10-inside-4_7521_3579" fill="white">
		<path d="M3.83826 4.58984H2.87207V5.57197H3.83826V4.58984Z" />
	</mask>
	<path d="M3.83826 4.58984H2.87207V5.57197H3.83826V4.58984Z" fill="currentColor" />
	<path
		d="M2.87207 4.58984V3.58984H1.87207V4.58984H2.87207ZM3.83826 4.58984H4.83826V3.58984H3.83826V4.58984ZM3.83826 5.57197V6.57197H4.83826V5.57197H3.83826ZM2.87207 5.57197H1.87207V6.57197H2.87207V5.57197ZM2.87207 5.58984H3.83826V3.58984H2.87207V5.58984ZM2.83826 4.58984V5.57197H4.83826V4.58984H2.83826ZM3.83826 4.57197H2.87207V6.57197H3.83826V4.57197ZM3.87207 5.57197V4.58984H1.87207V5.57197H3.87207Z"
		fill="currentColor" mask="url(#path-10-inside-4_7521_3579)" />
	<mask id="path-12-inside-5_7521_3579" fill="white">
		<path d="M2.87195 3.60107H1.90576V4.5832H2.87195V3.60107Z" />
	</mask>
	<path d="M2.87195 3.60107H1.90576V4.5832H2.87195V3.60107Z" fill="currentColor" />
	<path
		d="M1.90576 3.60107V2.60107H0.905762V3.60107H1.90576ZM2.87195 3.60107H3.87195V2.60107H2.87195V3.60107ZM2.87195 4.5832V5.5832H3.87195V4.5832H2.87195ZM1.90576 4.5832H0.905762V5.5832H1.90576V4.5832ZM1.90576 4.60107H2.87195V2.60107H1.90576V4.60107ZM1.87195 3.60107V4.5832H3.87195V3.60107H1.87195ZM2.87195 3.5832H1.90576V5.5832H2.87195V3.5832ZM2.90576 4.5832V3.60107H0.905762V4.5832H2.90576Z"
		fill="currentColor" mask="url(#path-12-inside-5_7521_3579)" />
	<mask id="path-14-inside-6_7521_3579" fill="white">
		<path d="M0.966184 3.39746H0V4.37959H0.966184V3.39746Z" />
	</mask>
	<path d="M0.966184 3.39746H0V4.37959H0.966184V3.39746Z" fill="currentColor" />
	<path
		d="M0 3.39746V2.39746H-1V3.39746H0ZM0.966184 3.39746H1.96618V2.39746H0.966184V3.39746ZM0.966184 4.37959V5.37959H1.96618V4.37959H0.966184ZM0 4.37959H-1V5.37959H0V4.37959ZM0 4.39746H0.966184V2.39746H0V4.39746ZM-0.0338156 3.39746V4.37959H1.96618V3.39746H-0.0338156ZM0.966184 3.37959H0V5.37959H0.966184V3.37959ZM1 4.37959V3.39746H-1V4.37959H1Z"
		fill="currentColor" mask="url(#path-14-inside-6_7521_3579)" />
	<mask id="path-16-inside-7_7521_3579" fill="white">
		<path d="M1.76599 5.1792H0.799805V6.16133H1.76599V5.1792Z" />
	</mask>
	<path d="M1.76599 5.1792H0.799805V6.16133H1.76599V5.1792Z" fill="currentColor" />
	<path
		d="M0.799805 5.1792V4.1792H-0.200195V5.1792H0.799805ZM1.76599 5.1792H2.76599V4.1792H1.76599V5.1792ZM1.76599 6.16133V7.16133H2.76599V6.16133H1.76599ZM0.799805 6.16133H-0.200195V7.16133H0.799805V6.16133ZM0.799805 6.1792H1.76599V4.1792H0.799805V6.1792ZM0.765994 5.1792V6.16133H2.76599V5.1792H0.765994ZM1.76599 5.16133H0.799805V7.16133H1.76599V5.16133ZM1.7998 6.16133V5.1792H-0.200195V6.16133H1.7998Z"
		fill="currentColor" mask="url(#path-16-inside-7_7521_3579)" />
	<mask id="path-18-inside-8_7521_3579" fill="white">
		<path d="M8.93542 2.12451H7.96924V3.10664H8.93542V2.12451Z" />
	</mask>
	<path d="M8.93542 2.12451H7.96924V3.10664H8.93542V2.12451Z" fill="currentColor" />
	<path
		d="M7.96924 2.12451V1.12451H6.96924V2.12451H7.96924ZM8.93542 2.12451H9.93542V1.12451H8.93542V2.12451ZM8.93542 3.10664V4.10664H9.93542V3.10664H8.93542ZM7.96924 3.10664H6.96924V4.10664H7.96924V3.10664ZM7.96924 3.12451H8.93542V1.12451H7.96924V3.12451ZM7.93542 2.12451V3.10664H9.93542V2.12451H7.93542ZM8.93542 2.10664H7.96924V4.10664H8.93542V2.10664ZM8.96924 3.10664V2.12451H6.96924V3.10664H8.96924Z"
		fill="currentColor" mask="url(#path-18-inside-8_7521_3579)" />
	<mask id="path-20-inside-9_7521_3579" fill="white">
		<path d="M7.203 3.11328H6.23682V4.09541H7.203V3.11328Z" />
	</mask>
	<path d="M7.203 3.11328H6.23682V4.09541H7.203V3.11328Z" fill="currentColor" />
	<path
		d="M6.23682 3.11328V2.11328H5.23682V3.11328H6.23682ZM7.203 3.11328H8.203V2.11328H7.203V3.11328ZM7.203 4.09541V5.09541H8.203V4.09541H7.203ZM6.23682 4.09541H5.23682V5.09541H6.23682V4.09541ZM6.23682 4.11328H7.203V2.11328H6.23682V4.11328ZM6.203 3.11328V4.09541H8.203V3.11328H6.203ZM7.203 3.09541H6.23682V5.09541H7.203V3.09541ZM7.23682 4.09541V3.11328H5.23682V4.09541H7.23682Z"
		fill="currentColor" mask="url(#path-20-inside-9_7521_3579)" />
	<mask id="path-22-inside-10_7521_3579" fill="white">
		<path d="M8.17615 4.09521H7.20996V5.07734H8.17615V4.09521Z" />
	</mask>
	<path d="M8.17615 4.09521H7.20996V5.07734H8.17615V4.09521Z" fill="currentColor" />
	<path
		d="M7.20996 4.09521V3.09521H6.20996V4.09521H7.20996ZM8.17615 4.09521H9.17615V3.09521H8.17615V4.09521ZM8.17615 5.07734V6.07734H9.17615V5.07734H8.17615ZM7.20996 5.07734H6.20996V6.07734H7.20996V5.07734ZM7.20996 5.09521H8.17615V3.09521H7.20996V5.09521ZM7.17615 4.09521V5.07734H9.17615V4.09521H7.17615ZM8.17615 4.07734H7.20996V6.07734H8.17615V4.07734ZM8.20996 5.07734V4.09521H6.20996V5.07734H8.20996Z"
		fill="currentColor" mask="url(#path-22-inside-10_7521_3579)" />
	<mask id="path-24-inside-11_7521_3579" fill="white">
		<path d="M7.68933 8.78906H6.72314V9.7712H7.68933V8.78906Z" />
	</mask>
	<path d="M7.68933 8.78906H6.72314V9.7712H7.68933V8.78906Z" fill="currentColor" />
	<path
		d="M6.72314 8.78906V7.78906H5.72314V8.78906H6.72314ZM7.68933 8.78906H8.68933V7.78906H7.68933V8.78906ZM7.68933 9.7712V10.7712H8.68933V9.7712H7.68933ZM6.72314 9.7712H5.72314V10.7712H6.72314V9.7712ZM6.72314 9.78906H7.68933V7.78906H6.72314V9.78906ZM6.68933 8.78906V9.7712H8.68933V8.78906H6.68933ZM7.68933 8.7712H6.72314V10.7712H7.68933V8.7712ZM7.72314 9.7712V8.78906H5.72314V9.7712H7.72314Z"
		fill="currentColor" mask="url(#path-24-inside-11_7521_3579)" />
	<mask id="path-26-inside-12_7521_3579" fill="white">
		<path d="M1.10632 8.98584H0.140137V9.96797H1.10632V8.98584Z" />
	</mask>
	<path d="M1.10632 8.98584H0.140137V9.96797H1.10632V8.98584Z" fill="currentColor" />
	<path
		d="M0.140137 8.98584V7.98584H-0.859863V8.98584H0.140137ZM1.10632 8.98584H2.10632V7.98584H1.10632V8.98584ZM1.10632 9.96797V10.968H2.10632V9.96797H1.10632ZM0.140137 9.96797H-0.859863V10.968H0.140137V9.96797ZM0.140137 9.98584H1.10632V7.98584H0.140137V9.98584ZM0.106321 8.98584V9.96797H2.10632V8.98584H0.106321ZM1.10632 8.96797H0.140137V10.968H1.10632V8.96797ZM1.14014 9.96797V8.98584H-0.859863V9.96797H1.14014Z"
		fill="currentColor" mask="url(#path-26-inside-12_7521_3579)" />
	<mask id="path-28-inside-13_7521_3579" fill="white">
		<path d="M2.61853 7.73926H1.65234V8.72138H2.61853V7.73926Z" />
	</mask>
	<path d="M2.61853 7.73926H1.65234V8.72138H2.61853V7.73926Z" fill="currentColor" />
	<path
		d="M1.65234 7.73926V6.73926H0.652344V7.73926H1.65234ZM2.61853 7.73926H3.61853V6.73926H2.61853V7.73926ZM2.61853 8.72138V9.72138H3.61853V8.72138H2.61853ZM1.65234 8.72138H0.652344V9.72138H1.65234V8.72138ZM1.65234 8.73926H2.61853V6.73926H1.65234V8.73926ZM1.61853 7.73926V8.72138H3.61853V7.73926H1.61853ZM2.61853 7.72138H1.65234V9.72138H2.61853V7.72138ZM2.65234 8.72138V7.73926H0.652344V8.72138H2.65234Z"
		fill="currentColor" mask="url(#path-28-inside-13_7521_3579)" />
	<mask id="path-30-inside-14_7521_3579" fill="white">
		<path d="M4.78406 7.5835H3.81787V8.56563H4.78406V7.5835Z" />
	</mask>
	<path d="M4.78406 7.5835H3.81787V8.56563H4.78406V7.5835Z" fill="currentColor" />
	<path
		d="M3.81787 7.5835V6.5835H2.81787V7.5835H3.81787ZM4.78406 7.5835H5.78406V6.5835H4.78406V7.5835ZM4.78406 8.56563V9.56563H5.78406V8.56563H4.78406ZM3.81787 8.56563H2.81787V9.56563H3.81787V8.56563ZM3.81787 8.5835H4.78406V6.5835H3.81787V8.5835ZM3.78406 7.5835V8.56563H5.78406V7.5835H3.78406ZM4.78406 7.56563H3.81787V9.56563H4.78406V7.56563ZM4.81787 8.56563V7.5835H2.81787V8.56563H4.81787Z"
		fill="currentColor" mask="url(#path-30-inside-14_7521_3579)" />
	<mask id="path-32-inside-15_7521_3579" fill="white">
		<path d="M5.75036 6.60156H4.78418V7.58369H5.75036V6.60156Z" />
	</mask>
	<path d="M5.75036 6.60156H4.78418V7.58369H5.75036V6.60156Z" fill="currentColor" />
	<path
		d="M4.78418 6.60156V5.60156H3.78418V6.60156H4.78418ZM5.75036 6.60156H6.75036V5.60156H5.75036V6.60156ZM5.75036 7.58369V8.58369H6.75036V7.58369H5.75036ZM4.78418 7.58369H3.78418V8.58369H4.78418V7.58369ZM4.78418 7.60156H5.75036V5.60156H4.78418V7.60156ZM4.75036 6.60156V7.58369H6.75036V6.60156H4.75036ZM5.75036 6.58369H4.78418V8.58369H5.75036V6.58369ZM5.78418 7.58369V6.60156H3.78418V7.58369H5.78418Z"
		fill="currentColor" mask="url(#path-32-inside-15_7521_3579)" />
	<mask id="path-34-inside-16_7521_3579" fill="white">
		<path d="M3.63806 6.16113H2.67188V7.14326H3.63806V6.16113Z" />
	</mask>
	<path d="M3.63806 6.16113H2.67188V7.14326H3.63806V6.16113Z" fill="currentColor" />
	<path
		d="M2.67188 6.16113V5.16113H1.67188V6.16113H2.67188ZM3.63806 6.16113H4.63806V5.16113H3.63806V6.16113ZM3.63806 7.14326V8.14326H4.63806V7.14326H3.63806ZM2.67188 7.14326H1.67188V8.14326H2.67188V7.14326ZM2.67188 7.16113H3.63806V5.16113H2.67188V7.16113ZM2.63806 6.16113V7.14326H4.63806V6.16113H2.63806ZM3.63806 6.14326H2.67188V8.14326H3.63806V6.14326ZM3.67188 7.14326V6.16113H1.67188V7.14326H3.67188Z"
		fill="currentColor" mask="url(#path-34-inside-16_7521_3579)" />
	<mask id="path-36-inside-17_7521_3579" fill="white">
		<path d="M4.80408 3.60107H3.83789V4.5832H4.80408V3.60107Z" />
	</mask>
	<path d="M4.80408 3.60107H3.83789V4.5832H4.80408V3.60107Z" fill="currentColor" />
	<path
		d="M3.83789 3.60107V2.60107H2.83789V3.60107H3.83789ZM4.80408 3.60107H5.80408V2.60107H4.80408V3.60107ZM4.80408 4.5832V5.5832H5.80408V4.5832H4.80408ZM3.83789 4.5832H2.83789V5.5832H3.83789V4.5832ZM3.83789 4.60107H4.80408V2.60107H3.83789V4.60107ZM3.80408 3.60107V4.5832H5.80408V3.60107H3.80408ZM4.80408 3.5832H3.83789V5.5832H4.80408V3.5832ZM4.83789 4.5832V3.60107H2.83789V4.5832H4.83789Z"
		fill="currentColor" mask="url(#path-36-inside-17_7521_3579)" />
</svg>
