<svg width="12" height="12" viewBox="0 0 12 12" fill="none" xmlns="http://www.w3.org/2000/svg">
<path d="M3 4.25C3 3.38805 3.34241 2.5614 3.9519 1.9519C4.5614 1.34241 5.38805 1 6.25 1C7.11195 1 7.9386 1.34241 8.5481 1.9519C9.15759 2.5614 9.5 3.38805 9.5 4.25C9.5 7.25 6.5 7.25 6.5 9.25C6.5 9.47981 6.45474 9.70738 6.36679 9.9197C6.27884 10.132 6.14994 10.3249 5.98744 10.4874C5.82493 10.6499 5.63202 10.7788 5.4197 10.8668C5.20738 10.9547 4.97981 11 4.75 11C4.52019 11 4.29262 10.9547 4.0803 10.8668C3.86798 10.7788 3.67507 10.6499 3.51256 10.4874C3.35006 10.3249 3.22116 10.132 3.13321 9.9197C3.04527 9.70738 3 9.47981 3 9.25" stroke="currentColor" stroke-opacity="0.88" stroke-linecap="round" stroke-linejoin="round"/>
<path d="M7.5 4.25C7.5 3.91848 7.3683 3.60054 7.13388 3.36612C6.89946 3.1317 6.58152 3 6.25 3C5.91848 3 5.60054 3.1317 5.36612 3.36612C5.1317 3.60054 5 3.91848 5 4.25V4.75C5.26522 4.75 5.51957 4.85536 5.70711 5.04289C5.89464 5.23043 6 5.48478 6 5.75C6 6.01522 5.89464 6.26957 5.70711 6.45711C5.51957 6.64464 5.26522 6.75 5 6.75" stroke="currentColor" stroke-opacity="0.88" stroke-linecap="round" stroke-linejoin="round"/>
</svg>
