<svg width="13" height="14" viewBox="0 0 13 14" fill="none" xmlns="http://www.w3.org/2000/svg">
<path d="M12.5 7.13822C12.5 6.71551 12.466 6.2928 12.398 5.87871H6.62434V8.26832H9.93205C9.796 9.0361 9.35384 9.72624 8.7076 10.1576V11.7104H10.6803C11.8368 10.632 12.5 9.0361 12.5 7.13822Z" fill="#4285F4"/>
<path d="M6.62458 13.2114C8.27419 13.2114 9.66846 12.6593 10.6803 11.7104L8.7076 10.1576C8.1549 10.5372 7.44938 10.7528 6.62458 10.7528C5.02599 10.7528 3.67399 9.65723 3.18931 8.19068H1.15707V9.79526C2.19445 11.8916 4.31173 13.2114 6.62458 13.2114Z" fill="#34A853"/>
<path d="M3.18931 8.19068C2.93418 7.4229 2.93441 6.58614 3.18954 5.80973V4.21378H1.15697C0.281009 5.96501 0.281009 8.03543 1.15697 9.78665L3.18931 8.19068Z" fill="#FBBC04"/>
<path d="M6.62458 3.24757C7.5004 3.23031 8.34221 3.56676 8.97144 4.17926L10.7231 2.40215C9.60918 1.34969 8.14664 0.771696 6.62458 0.78895C4.31173 0.78895 2.19435 2.11749 1.15697 4.21378L3.18931 5.81834C3.67399 4.34316 5.02599 3.24757 6.62458 3.24757Z" fill="#EA4335"/>
</svg>
