<svg width="8" height="11" viewBox="0 0 8 11" fill="none" xmlns="http://www.w3.org/2000/svg">
<path fill-rule="evenodd" clip-rule="evenodd" d="M3.46154 1.66691C3.46154 2.31124 2.94494 2.83358 2.30769 2.83358C1.67044 2.83358 1.15385 2.31124 1.15385 1.66691C1.15385 1.02258 1.67044 0.500244 2.30769 0.500244C2.94494 0.500244 3.46154 1.02258 3.46154 1.66691ZM2.88462 9.83358C3.84049 9.83358 4.61538 9.05008 4.61538 8.08358C4.61538 7.11708 3.84049 6.33358 2.88462 6.33358C1.92874 6.33358 1.15385 7.11708 1.15385 8.08358C1.15385 9.05008 1.92874 9.83358 2.88462 9.83358ZM5.63717 7.20858C5.30721 6.14635 4.39241 5.34598 3.27434 5.1933L3.17579 4.86946C3.52757 5.02884 4.00872 5.16692 4.61536 5.16692H5.19228V4.00025L4.61536 4.00025C4.13811 4.00025 3.7932 3.88033 3.57529 3.77017C3.46539 3.71461 3.38654 3.66084 3.33892 3.62473C3.31515 3.6067 3.29934 3.59321 3.29154 3.58631L3.28757 3.58275L3.12356 3.41691L1.52654 3.41691L2.09292 5.27813C0.884715 5.62604 0 6.75034 0 8.08358C0 9.69441 1.29149 11.0002 2.88462 11.0002C4.38039 11.0002 5.61026 9.84913 5.75499 8.37525H6.10374L6.34215 10.4169H7.5L7.2536 8.27836C7.20377 7.67369 6.70385 7.20858 6.10374 7.20858H5.63717Z" fill="white"/>
</svg>
